inDegrees=yes
name=IK-live
DataType=double
version=3
OpenSimVersion=4.1
endheader
time	pelvis_tilt	pelvis_list	pelvis_rotation	pelvis_tx	pelvis_ty	pelvis_tz	hip_flexion_r	hip_adduction_r	hip_rotation_r	knee_angle_r	ankle_angle_r	subtalar_angle_r	mtp_angle_r	hip_flexion_l	hip_adduction_l	hip_rotation_l	knee_angle_l	ankle_angle_l	subtalar_angle_l	mtp_angle_l	lumbar_extension	lumbar_bending	lumbar_rotation	neck_flex	neck_latbend	neck_rot	arm_flex_r	arm_add_r	arm_rot_r	elbow_flex_r	pro_sup_r	wrist_flex_r	wrist_dev_r	arm_flex_l	arm_add_l	arm_rot_l	elbow_flex_l	pro_sup_l	wrist_flex_l	wrist_dev_l
16.9005164	-8.663913107026069	-13.63862707721337	-107.3257955022482	0.2341366603171506	0.04326292228651554	-1.326684523481465	-22.57117169827992	-1.591976316804377	-3.241458145969817	5.899560354604904	2.451982624139334	1.987972377786656	0	-24.74788768789517	-3.395140484746916	-11.58000132048591	9.793848132074926	-0.4439473045988533	4.250290820099795	0	-21.37711699760957	1.659277491615732	3.206407148933037	0	0	0	0.772846510092429	-15.17653473491199	33.32094944883151	6.878040297570171	24.84952970173677	0	0.001170653665598175	5.864484127775924	-13.22946897749166	43.91311965585788	6.689112058816647	33.46799912869252	0	0.001170653665598175
17.0754324	-3.482342805168474	-16.19976566324207	-83.35241923434079	0.2341366603171506	0.04326292228651554	-1.326684523481465	-22.57117169827992	-1.591976316804377	-3.241458145969817	5.899560354604904	2.451982624139334	1.987972377786656	0	-24.74788768789517	-3.395140484746916	-11.58000132048591	9.793848132074926	-0.4439473045988533	4.250290820099795	0	-21.37711699760957	1.659277491615732	3.206407148933037	0	0	0	0.7731142261599927	-15.17653354193318	33.32058772277349	6.883711832655388	24.85051332523186	0	0.00162627134627792	5.86472723156967	-13.22948094588622	43.91257581989124	6.694956528927088	33.46847728857347	0	0.00162627134627792
17.2503157	-0.866137065630019	-15.48445105202487	-87.38019057616678	0.2341366603171506	0.04326292228651554	-1.326684523481465	-22.57117169827992	-1.591976316804377	-3.241458145969817	5.899560354604904	2.451982624139334	1.987972377786656	0	-24.74788768789517	-3.395140484746916	-11.58000132048591	9.793848132074926	-0.4439473045988533	4.250290820099795	0	-21.37711699760957	1.659277491615732	3.206407148933037	0	0	0	0.772868800676009	-15.17653463010544	33.32091581963231	6.878668363143412	24.84963154256176	0	0.001218790742666182	5.8645042130803	-13.22947002900804	43.91306801913426	6.689759809458645	33.4680477773334	0	0.001218790742666182
17.4252009	-4.649178029563602	-14.66377644598059	-102.2176820673258	0.2341366603171506	0.04326292228651554	-1.326684523481465	-22.57117169827992	-1.591976316804377	-3.241458145969817	5.899560354604904	2.451982624139334	1.987972377786656	0	-24.74788768789517	-3.395140484746916	-11.58000132048591	9.793848132074926	-0.4439473045988533	4.250290820099795	0	-21.37711699760957	1.659277491615732	3.206407148933037	0	0	0	0.7726105207613558	-15.17653576328388	33.32125334406875	6.873761756093396	24.8487494402512	0	0.000813837495444839	5.864269174677909	-13.22945866074498	43.91357189115114	6.684707321859132	33.46761588080289	0	0.000813837495444839
17.6001004	-9.391293091227984	-11.97351410341196	-123.3056273531091	0.2341366603171506	0.04326292228651554	-1.326684523481465	-22.57117169827992	-1.591976316804377	-3.241458145969817	5.899560354604904	2.451982624139334	1.987972377786656	0	-24.74788768789517	-3.395140484746916	-11.58000132048591	9.793848132074926	-0.4439473045988533	4.250290820099795	0	-21.37711699760957	1.659277491615732	3.206407148933037	0	0	0	0.7727888685996228	-15.17653498044476	33.32102004208554	6.877166191909033	24.8493600446498	0	0.001094266951247542	5.864431463829043	-13.22946651434091	43.91322352690419	6.688213262567664	33.46791475639529	0	0.001094266951247542
17.77498	-11.22892974368223	-10.16286797885749	-133.2242814560251	0.2341366603171506	0.04326292228651554	-1.326684523481465	-22.57117169827992	-1.591976316804377	-3.241458145969817	5.899560354604904	2.451982624139334	1.987972377786656	0	-24.74788768789517	-3.395140484746916	-11.58000132048591	9.793848132074926	-0.4439473045988533	4.250290820099795	0	-21.37711699760957	1.659277491615732	3.206407148933037	0	0	0	0.7757614282330065	-15.17652197582406	33.31716302671884	6.92937281104951	24.85926228833095	0	0.005606445693434392	5.8671374756729	-13.22959697873014	43.90747776980839	6.741854155988315	33.47278579853864	0	0.005606445693434392
17.9278716	-11.32762054116765	-10.04493332735877	-133.8513111259301	0.2341366603171506	0.04326292228651554	-1.326684523481465	-22.57117169827992	-1.591976316804377	-3.241458145969817	5.899560354604904	2.451982624139334	1.987972377786656	0	-24.74788768789517	-3.395140484746916	-11.58000132048591	9.793848132074926	-0.4439473045988533	4.250290820099795	0	-21.37711699760957	1.659277491615732	3.206407148933037	0	0	0	0.7757604509540923	-15.17652198006862	33.31716427425901	6.929357235936099	24.85925916634291	0	0.00560503417111278	5.867136585160391	-13.22959693614842	43.90747962103502	6.741838189282999	33.47278425406721	0	0.00560503417111278
18.1007723	-10.65388482485041	-10.83348342139911	-129.6226022684151	0.2341366603171506	0.04326292228651554	-1.326684523481465	-22.57117169827992	-1.591976316804377	-3.241458145969817	5.899560354604904	2.451982624139334	1.987972377786656	0	-24.74788768789517	-3.395140484746916	-11.58000132048591	9.793848132074926	-0.4439473045988533	4.250290820099795	0	-21.37711699760957	1.659277491615732	3.206407148933037	0	0	0	0.7727812798981699	-15.17653501357206	33.32102985011688	6.877028326570482	24.84933478914235	0	0.001082717152333436	5.86442455328783	-13.22946618200334	43.91323813263468	6.688071375314987	33.46790235478292	0	0.001082717152333436
18.2756838	-11.07456517920569	-11.48502624639365	-120.0404608197018	0.2341366603171506	0.04326292228651554	-1.326684523481465	-22.57117169827992	-1.591976316804377	-3.241458145969817	5.899560354604904	2.451982624139334	1.987972377786656	0	-24.74788768789517	-3.395140484746916	-11.58000132048591	9.793848132074926	-0.4439473045988533	4.250290820099795	0	-21.37711699760957	1.659277491615732	3.206407148933037	0	0	0	0.7728504359834314	-15.176534713471	33.32094160162251	6.878246503846479	24.84955888344461	0	0.001184954844997996	5.864487580728469	-13.22946919263822	43.91310706658508	6.689325306981773	33.46801264220118	0	0.001184954844997996
